# xmcd
#
# Track frame offsets:
#	150
#	11661
#	32153
#	44095
#	60478
#	72460
#	86297
#	104621
#	115883
#	131620
#	140985
#	157141
#	170669
#	180144
#	195431
#
# Disc length: 2855 seconds
# Revision: 2
# Processed by: cddbd v1.5.2PL0 Copyright (c) Steve Scherf et al.
# Submitted via: dBpowerAMP V12.0
#
DISCID=d70b250f
DTITLE=Various Artist - The Essential Classic Country, CD 1
DYEAR=2010
DGENRE=Country
TTITLE0=Waylon Jennings and Willie Nelson - Mammas Don't Let Your Babies Grow Up To Be Cowboys
TTITLE1=Kris Kristofferson - Sunday Mornin' Comin' Down
TTITLE2=Johnny Paycheck - Take This Job and Shove It
TTITLE3=Charlie Daniels Band - The Devil Went Down to Georgia
TTITLE4=Tammy Wynette - Stand By Your Man
TTITLE5=The Highwaymen - Highwayman
TTITLE6=Alabama - My Home's in Alabama
TTITLE7=Conway Twitty - Hello Darlin'
TTITLE8=Ronnie Milsap - I Wouldn't Have Missed It for the World
TTITLE9=Charley Pride - Kiss an Angel Good Morning
TTITLE10=Willie Nelson - Always on My Mind
TTITLE11=Ricky Skaggs - Crying My Heart Out Over You
TTITLE12=Barbara Mandrell - Tonight My Baby's Coming Home
TTITLE13=Eddie Rabbitt - The Wanderer
TTITLE14=Dolly Parton with Kenny Rogers - Islands in the Stream
EXTD=
EXTT0=
EXTT1=
EXTT2=
EXTT3=
EXTT4=
EXTT5=
EXTT6=
EXTT7=
EXTT8=
EXTT9=
EXTT10=
EXTT11=
EXTT12=
EXTT13=
EXTT14=
PLAYORDER=
